<?xml version="1.0" standalone="no"?>
<!DOCTYPE svg PUBLIC "-//W3C//DTD SVG 20010904//EN"
 "http://www.w3.org/TR/2001/REC-SVG-20010904/DTD/svg10.dtd">
<svg version="1.0" xmlns="http://www.w3.org/2000/svg"
 width="1000.000000pt" height="1000.000000pt" viewBox="0 0 1000.000000 1000.000000"
 preserveAspectRatio="xMidYMid meet">

<g transform="translate(0.000000,1000.000000) scale(0.100000,-0.100000)"
fill="#000000" stroke="none">
<path d="M4895 8592 c-60 -28 -103 -69 -129 -121 -12 -25 -177 -524 -367
-1108 l-344 -1063 -1155 -2 -1155 -3 -47 -23 c-55 -27 -113 -88 -136 -141 -38
-90 -11 -220 60 -288 18 -16 337 -251 708 -520 371 -270 779 -565 905 -657
165 -120 229 -172 227 -184 -2 -9 -32 -105 -67 -212 -500 -1536 -627 -1931
-632 -1966 -13 -98 56 -217 154 -265 60 -29 152 -30 213 -2 25 11 452 316 949
677 497 362 909 660 915 662 6 2 48 -22 91 -54 64 -48 1309 -951 1665 -1209
47 -34 104 -70 125 -79 57 -25 149 -22 208 6 97 46 167 167 153 264 -3 23
-163 525 -355 1116 -193 591 -347 1078 -343 1081 4 4 412 300 907 659 495 359
913 665 928 679 108 99 106 286 -4 385 -84 77 21 71 -1269 74 l-1156 2 -232
718 c-468 1438 -470 1444 -499 1486 -16 22 -51 54 -78 71 -41 25 -60 30 -124
33 -58 2 -86 -2 -116 -16z m440 -1389 c182 -560 340 -1038 351 -1063 27 -56
65 -92 129 -122 l50 -23 1102 0 c607 0 1103 -2 1102 -5 0 -3 -143 -108 -317
-234 -998 -723 -1421 -1032 -1450 -1059 -49 -47 -76 -110 -76 -181 0 -51 18
-117 108 -391 88 -271 292 -896 526 -1620 22 -65 38 -120 37 -122 -3 -3 -57
36 -1117 807 -344 250 -645 465 -669 477 -62 32 -160 32 -222 0 -37 -19 -666
-472 -1573 -1134 -116 -84 -211 -151 -213 -150 -1 2 36 122 83 268 152 470
333 1025 462 1419 107 327 126 394 125 445 -1 71 -28 137 -76 182 -24 23
-1191 874 -1709 1247 -32 22 -58 43 -58 46 0 3 480 4 1067 2 695 -1 1087 1
1123 8 70 13 136 54 173 106 21 30 107 281 313 915 156 481 307 947 336 1037
28 89 54 162 57 162 3 0 155 -458 336 -1017z"/>
</g>
</svg>
